<?xml version="1.0" standalone="no"?>
<!DOCTYPE svg PUBLIC "-//W3C//DTD SVG 20010904//EN"
 "http://www.w3.org/TR/2001/REC-SVG-20010904/DTD/svg10.dtd">
<svg version="1.0" xmlns="http://www.w3.org/2000/svg"
 width="500.000000pt" height="500.000000pt" viewBox="0 0 500.000000 500.000000"
 preserveAspectRatio="xMidYMid meet">

<g transform="translate(0.000000,500.000000) scale(0.100000,-0.100000)"
fill="#000000" stroke="none">
<path d="M2410 4549 c-291 -30 -551 -265 -663 -601 -108 -322 -83 -670 69
-977 64 -127 66 -135 55 -171 -21 -69 -11 -104 54 -194 45 -62 47 -107 8 -133
-61 -40 -312 -11 -533 63 -330 110 -514 315 -514 574 0 167 74 298 209 368 40
21 64 26 122 27 63 0 76 -3 115 -30 114 -79 130 -262 29 -335 -67 -47 -140
-35 -196 32 -23 27 -26 39 -22 76 5 45 42 96 79 108 26 8 12 24 -20 24 -39 0
-96 -42 -117 -86 -26 -56 -16 -153 22 -208 44 -63 103 -91 188 -91 59 0 79 5
124 30 196 108 219 389 47 573 -222 237 -612 130 -782 -213 -146 -295 -77
-657 175 -918 134 -139 298 -244 552 -353 85 -36 159 -70 166 -76 53 -43 -79
-164 -289 -263 -234 -110 -453 -133 -614 -64 -66 28 -156 118 -187 187 -74
164 -22 326 117 367 89 27 151 13 213 -49 50 -50 63 -100 42 -160 -43 -122
-225 -110 -246 17 -5 36 -7 38 -20 22 -19 -27 -16 -82 8 -125 27 -48 84 -80
154 -87 75 -8 151 29 194 94 36 54 45 93 39 171 -5 75 -40 143 -104 201 -149
136 -412 114 -554 -46 -227 -255 -80 -700 285 -868 122 -57 191 -70 365 -69
140 1 166 4 271 32 152 40 268 87 543 216 55 26 116 48 136 49 103 4 153 -112
153 -348 -1 -258 -84 -445 -227 -515 -59 -28 -167 -38 -231 -20 -54 15 -128
77 -155 129 -86 169 14 371 177 359 87 -7 154 -74 155 -157 1 -64 -44 -127
-107 -151 -27 -10 -28 -12 -11 -22 50 -28 149 20 185 90 101 199 -77 429 -303
392 -123 -20 -224 -98 -283 -217 -32 -65 -37 -86 -41 -163 -7 -152 51 -288
167 -393 105 -93 228 -133 388 -125 125 7 214 36 313 103 208 141 330 408 355
775 9 134 13 150 35 150 24 0 26 -8 40 -169 36 -413 175 -673 430 -801 117
-59 304 -78 421 -44 201 59 346 229 374 439 8 65 -16 180 -52 246 -38 71 -129
152 -200 179 -204 78 -405 -50 -405 -257 0 -84 30 -146 91 -185 35 -22 56 -28
85 -26 53 4 54 19 4 43 -23 11 -51 32 -61 46 -28 39 -33 108 -11 154 23 50 94
95 148 95 151 -1 240 -162 182 -328 -37 -105 -116 -162 -231 -170 -250 -16
-397 195 -396 565 1 140 23 234 68 283 62 69 69 68 348 -63 312 -146 540 -205
749 -194 214 11 367 77 506 217 128 128 190 267 190 425 -1 264 -194 451 -450
433 -257 -19 -412 -303 -261 -479 68 -80 165 -100 258 -54 76 38 110 102 92
170 -12 41 -29 47 -29 10 0 -64 -56 -118 -121 -117 -53 1 -96 29 -120 79 -71
147 134 289 291 202 145 -80 145 -314 1 -459 -117 -117 -296 -148 -517 -91
-255 66 -545 255 -505 329 6 11 58 39 128 67 569 232 842 543 845 965 1 128
-14 200 -63 309 -158 347 -558 468 -784 237 -78 -80 -116 -164 -122 -268 -7
-113 18 -181 96 -259 104 -104 237 -118 336 -37 97 80 106 238 19 307 -34 26
-66 35 -95 26 -21 -7 -21 -8 9 -21 39 -16 72 -68 72 -114 0 -70 -63 -130 -136
-130 -15 0 -46 11 -70 25 -103 60 -111 214 -15 313 91 93 247 77 363 -39 131
-131 154 -338 59 -527 -62 -123 -155 -209 -306 -285 -214 -107 -598 -177 -678
-124 -52 34 -49 60 18 161 48 74 55 107 34 177 -11 35 -10 41 19 86 70 110
132 281 158 441 24 144 14 372 -22 512 -121 475 -455 742 -874 699z"/>
</g>
</svg>
