<?xml version="1.0" standalone="no"?>
<!DOCTYPE svg PUBLIC "-//W3C//DTD SVG 20010904//EN"
 "http://www.w3.org/TR/2001/REC-SVG-20010904/DTD/svg10.dtd">
<svg version="1.0" xmlns="http://www.w3.org/2000/svg"
 width="500.000000pt" height="500.000000pt" viewBox="0 0 500.000000 500.000000"
 preserveAspectRatio="xMidYMid meet">

<g transform="translate(0.000000,500.000000) scale(0.100000,-0.100000)"
fill="#000000" stroke="none">
<path d="M2410 3841 c-151 -49 -252 -197 -266 -391 -7 -94 14 -202 57 -286 22
-45 28 -68 23 -88 -5 -20 -1 -35 15 -57 12 -17 21 -40 19 -52 -3 -19 -10 -22
-57 -25 -30 -2 -87 4 -125 14 -183 44 -280 137 -280 269 -1 99 56 167 142 169
36 1 48 -4 68 -28 35 -40 30 -100 -9 -130 -26 -19 -30 -19 -55 -5 -37 20 -42
71 -10 93 17 12 18 16 6 16 -32 0 -62 -36 -62 -75 0 -30 7 -44 33 -67 29 -26
39 -30 75 -25 80 11 132 103 107 188 -43 142 -216 173 -330 58 -91 -92 -113
-236 -54 -360 58 -124 170 -217 337 -279 40 -15 56 -27 56 -40 0 -38 -149
-121 -254 -141 -131 -24 -234 41 -239 151 -3 89 70 136 144 93 52 -31 46 -100
-12 -118 -25 -8 -59 12 -59 35 0 11 -4 20 -10 20 -19 0 -10 -47 13 -68 16 -15
36 -22 64 -22 82 0 121 95 70 171 -67 101 -225 87 -289 -26 -45 -81 -24 -188
54 -271 64 -68 129 -96 233 -102 96 -5 175 15 322 84 52 24 106 44 119 44 42
0 59 -42 59 -150 0 -81 -4 -102 -25 -145 -32 -63 -78 -95 -137 -95 -38 0 -51
6 -79 34 -30 30 -34 40 -34 85 0 62 30 101 78 101 73 0 103 -81 46 -127 -27
-21 -28 -23 -7 -23 12 0 34 11 49 23 22 19 27 32 27 68 0 58 -24 94 -78 115
-37 13 -49 14 -82 4 -162 -52 -162 -283 -1 -366 90 -46 219 -21 295 59 71 75
102 155 118 305 4 34 10 62 15 62 4 0 12 -40 19 -88 16 -127 44 -202 98 -262
56 -63 109 -91 185 -97 232 -22 347 288 140 379 -39 18 -50 19 -85 8 -74 -22
-110 -89 -83 -155 15 -35 42 -55 73 -55 14 0 12 5 -11 23 -55 45 -27 127 43
127 85 0 116 -125 46 -190 -16 -15 -40 -24 -72 -27 -63 -6 -109 23 -143 92
-21 43 -25 64 -25 145 0 150 31 178 137 124 28 -14 92 -42 142 -62 84 -33 100
-36 196 -37 124 0 177 19 248 88 51 49 68 78 82 141 27 121 -59 236 -176 236
-119 0 -197 -128 -128 -209 21 -26 33 -31 68 -31 51 0 90 34 84 72 -4 23 -4
23 -16 -4 -16 -39 -56 -47 -88 -17 -27 25 -29 37 -13 72 28 61 128 61 160 0
29 -54 1 -150 -55 -187 -44 -29 -108 -39 -172 -27 -103 19 -254 102 -254 140
0 11 23 26 68 45 102 44 206 111 255 166 105 116 132 259 73 386 -84 180 -299
208 -376 49 -45 -93 3 -199 97 -212 35 -4 45 -1 74 25 26 23 33 37 33 65 0 41
-27 77 -58 77 -20 0 -20 -1 2 -16 32 -22 27 -73 -10 -93 -25 -14 -29 -14 -55
5 -57 43 -34 143 37 159 37 8 111 -25 133 -59 53 -80 43 -183 -24 -260 -68
-77 -218 -136 -346 -136 -61 0 -63 1 -63 25 0 14 10 39 21 55 15 20 20 37 16
57 -4 20 4 48 28 98 56 118 68 241 36 368 -25 96 -52 148 -106 206 -65 69
-123 95 -220 98 -44 1 -91 -1 -105 -6z"/>
</g>
</svg>
